<svg width="19" height="18" viewBox="0 0 19 18" fill="none" xmlns="http://www.w3.org/2000/svg">
<path d="M3.875 2.81262L15.125 15.1876" stroke="white" stroke-linecap="round" stroke-linejoin="round"/>
<path d="M11.392 11.0811C10.84 11.5828 10.1114 11.8447 9.36636 11.8092C8.62133 11.7737 7.92091 11.4437 7.41917 10.8918C6.91744 10.3399 6.65548 9.61126 6.69092 8.86622C6.72637 8.12118 7.05631 7.42073 7.60818 6.91895" stroke="white" stroke-linecap="round" stroke-linejoin="round"/>
<path d="M5.70274 4.82312C2.83615 6.27476 1.625 9.00013 1.625 9.00013C1.625 9.00013 3.875 14.0621 9.5 14.0621C10.8179 14.0726 12.1194 13.769 13.2967 13.1765" stroke="white" stroke-linecap="round" stroke-linejoin="round"/>
<path d="M15.168 11.8899C16.7009 10.5169 17.3751 9.00007 17.3751 9.00007C17.3751 9.00007 15.1251 3.93702 9.50012 3.93702C9.01294 3.93623 8.52653 3.97583 8.0459 4.05544" stroke="white" stroke-linecap="round" stroke-linejoin="round"/>
<path d="M10.0293 6.2373C10.6271 6.35209 11.1715 6.6576 11.581 7.10801C11.9904 7.55842 12.2428 8.12944 12.3002 8.73542" stroke="white" stroke-linecap="round" stroke-linejoin="round"/>
</svg>
