<svg width="178" height="178" viewBox="0 0 178 178" fill="none" xmlns="http://www.w3.org/2000/svg">
<g filter="url(#filter0_d_41_2890)">
<rect x="6" y="6" width="158" height="158" rx="8" fill="url(#paint0_linear_41_2890)"/>
<path d="M64.9993 88.7506C64.9993 89.0789 64.9347 89.404 64.8091 89.7073C64.6834 90.0107 64.4993 90.2863 64.2671 90.5184C64.035 90.7506 63.7594 90.9347 63.4561 91.0603C63.1527 91.186 62.8276 91.2506 62.4993 91.2506H62.4992L48.7487 91.2494C48.2843 91.2493 47.8291 91.1199 47.4341 90.8757C47.0391 90.6314 46.72 90.2819 46.5125 89.8665C46.305 89.451 46.2173 88.9859 46.2593 88.5234C46.3012 88.0609 46.4712 87.6192 46.7501 87.2479C48.9659 84.2792 51.9211 81.9432 55.3211 80.4727C53.8602 79.1372 52.7373 77.4738 52.045 75.6195C51.3526 73.7651 51.1107 71.7728 51.339 69.8067C51.5673 67.8405 52.2594 65.9567 53.3582 64.3103C54.457 62.6639 55.9312 61.3021 57.6593 60.337C59.3875 59.3718 61.3201 58.8309 63.2982 58.7589C65.2763 58.6868 67.2432 59.0856 69.0369 59.9225C70.8307 60.7593 72.4001 62.0102 73.6158 63.5723C74.8315 65.1343 75.6588 66.9628 76.0296 68.9071C76.1255 69.4122 76.0634 69.9345 75.8517 70.4029C75.6401 70.8713 75.2891 71.2631 74.8467 71.5249C70.7993 73.9193 67.7189 77.6562 66.1408 82.0862C65.3827 84.2262 64.9967 86.4803 64.9993 88.7506ZM123.249 87.2473C121.033 84.2786 118.078 81.9425 114.678 80.4721C116.139 79.1366 117.262 77.4732 117.954 75.6189C118.647 73.7646 118.889 71.7723 118.66 69.8061C118.432 67.84 117.74 65.9562 116.641 64.3098C115.542 62.6634 114.068 61.3016 112.34 60.3364C110.612 59.3713 108.679 58.8304 106.701 58.7583C104.723 58.6862 102.756 59.085 100.963 59.9218C99.1689 60.7586 97.5995 62.0095 96.3837 63.5715C95.168 65.1335 94.3406 66.9619 93.9698 68.9062C93.874 69.4112 93.9361 69.9335 94.1477 70.4019C94.3593 70.8704 94.7102 71.2622 95.1525 71.524C99.1999 73.9186 102.28 77.6556 103.859 82.0856C104.617 84.2256 105.003 86.4796 105 88.75C105 89.0783 105.065 89.4034 105.19 89.7067C105.316 90.0101 105.5 90.2857 105.732 90.5178C105.964 90.75 106.24 90.9341 106.543 91.0597C106.847 91.1854 107.172 91.25 107.5 91.25L121.251 91.2488C121.715 91.2487 122.17 91.1193 122.565 90.875C122.96 90.6308 123.279 90.2813 123.487 89.8658C123.694 89.4504 123.782 88.9853 123.74 88.5228C123.698 88.0603 123.528 87.6186 123.249 87.2473L123.249 87.2473ZM94.1129 100.653C96.604 98.7477 98.4351 96.1095 99.349 93.1095C100.263 90.1095 100.213 86.8984 99.2076 83.928C98.2018 80.9575 96.2903 78.377 93.7418 76.5492C91.1933 74.7215 88.1361 73.7386 84.9999 73.7386C81.8638 73.7386 78.8065 74.7215 76.2581 76.5492C73.7096 78.377 71.798 80.9575 70.7923 83.928C69.7865 86.8984 69.737 90.1095 70.6509 93.1095C71.5647 96.1095 73.3959 98.7477 75.8869 100.653C71.0198 102.802 67.0765 106.613 64.7634 111.404C64.5776 111.786 64.4919 112.208 64.5141 112.631C64.5364 113.054 64.666 113.465 64.8907 113.825C65.1155 114.184 65.428 114.481 65.7988 114.686C66.1697 114.892 66.5867 115 67.0107 115H102.989C103.413 115 103.83 114.892 104.201 114.686C104.572 114.481 104.884 114.184 105.109 113.825C105.334 113.465 105.463 113.054 105.486 112.631C105.508 112.208 105.422 111.786 105.236 111.404C102.923 106.613 98.9801 102.802 94.1129 100.653Z" fill="white"/>
</g>
<defs>
<filter id="filter0_d_41_2890" x="0" y="0" width="178" height="178" filterUnits="userSpaceOnUse" color-interpolation-filters="sRGB">
<feFlood flood-opacity="0" result="BackgroundImageFix"/>
<feColorMatrix in="SourceAlpha" type="matrix" values="0 0 0 0 0 0 0 0 0 0 0 0 0 0 0 0 0 0 127 0" result="hardAlpha"/>
<feOffset dx="4" dy="4"/>
<feGaussianBlur stdDeviation="5"/>
<feComposite in2="hardAlpha" operator="out"/>
<feColorMatrix type="matrix" values="0 0 0 0 0 0 0 0 0 0 0 0 0 0 0 0 0 0 0.1 0"/>
<feBlend mode="normal" in2="BackgroundImageFix" result="effect1_dropShadow_41_2890"/>
<feBlend mode="normal" in="SourceGraphic" in2="effect1_dropShadow_41_2890" result="shape"/>
</filter>
<linearGradient id="paint0_linear_41_2890" x1="6" y1="100.8" x2="164" y2="100.8" gradientUnits="userSpaceOnUse">
<stop stop-color="#3DD5F3"/>
<stop offset="1" stop-color="#3D8BFD"/>
</linearGradient>
</defs>
</svg>
