<svg width="33" height="33" viewBox="0 0 33 33" fill="none" xmlns="http://www.w3.org/2000/svg">
<path d="M19.4993 26.4991V20.4989C19.4993 20.2337 19.3939 19.9794 19.2064 19.7918C19.0188 19.6043 18.7645 19.4989 18.4993 19.4989H14.4993C14.2341 19.4989 13.9797 19.6043 13.7922 19.7918C13.6046 19.9794 13.4993 20.2337 13.4993 20.4989V26.4991C13.4993 26.7643 13.3939 27.0186 13.2064 27.2061C13.0189 27.3937 12.7646 27.499 12.4994 27.4991L6.50012 27.4999C6.36879 27.4999 6.23874 27.474 6.1174 27.4238C5.99606 27.3735 5.88581 27.2999 5.79294 27.207C5.70007 27.1142 5.62639 27.0039 5.57613 26.8826C5.52587 26.7612 5.5 26.6312 5.5 26.4999V14.9423C5.5 14.803 5.52911 14.6652 5.58547 14.5378C5.64183 14.4104 5.72418 14.2962 5.82726 14.2024L15.8266 5.11058C16.0106 4.94322 16.2505 4.85047 16.4993 4.85046C16.7481 4.85046 16.9879 4.94318 17.172 5.11054L27.1727 14.2024C27.2758 14.2962 27.3582 14.4104 27.4145 14.5378C27.4709 14.6652 27.5 14.803 27.5 14.9424V26.4999C27.5 26.6312 27.4741 26.7612 27.4239 26.8826C27.3736 27.0039 27.2999 27.1142 27.2071 27.207C27.1142 27.2999 27.0039 27.3735 26.8826 27.4238C26.7613 27.474 26.6312 27.4999 26.4999 27.4999L20.4991 27.4991C20.2339 27.499 19.9796 27.3937 19.7921 27.2061C19.6046 27.0186 19.4993 26.7643 19.4993 26.4991V26.4991Z" stroke="white" stroke-width="2" stroke-linecap="round" stroke-linejoin="round"/>
</svg>
