<svg width="17" height="16" viewBox="0 0 17 16" fill="none" xmlns="http://www.w3.org/2000/svg">
<path d="M11.5015 2.00001C10.9194 1.99901 10.3451 2.13385 9.8243 2.39381C9.3035 2.65377 8.85054 3.03168 8.50146 3.49747C8.02869 2.86844 7.37008 2.404 6.61882 2.16988C5.86756 1.93576 5.0617 1.94382 4.31528 2.19291C3.56885 2.442 2.91965 2.91951 2.45955 3.55787C1.99944 4.19623 1.75173 4.96311 1.75146 5.75001C1.75146 10.2414 7.99152 13.7875 8.25714 13.9363C8.33179 13.9781 8.41591 14 8.50146 14C8.58702 14 8.67114 13.9781 8.74579 13.9363C9.89345 13.2641 10.9706 12.4782 11.9609 11.5904C14.1443 9.62531 15.2515 7.66031 15.2515 5.75001C15.2503 4.75579 14.8549 3.80262 14.1519 3.0996C13.4489 2.39658 12.4957 2.00113 11.5015 2.00001Z" fill="#1DB954"/>
</svg>
