<svg width="17" height="16" viewBox="0 0 17 16" fill="none" xmlns="http://www.w3.org/2000/svg">
<path d="M4.95205 6.62727L5.62329 5.86364C4.56849 4.62273 3.03425 3.95455 1.5 3.95455V4.90909C2.74658 4.90909 3.99315 5.48182 4.85616 6.43636L4.95205 6.62727ZM12.1438 11.1136C10.9932 11.1136 9.93836 10.6364 9.07534 9.87273L8.5 10.6364C9.4589 11.5909 10.8014 12.0682 12.1438 12.0682V13.5L15.5 11.5909L12.1438 9.68182V11.1136ZM12.1438 5.38636V6.81818L15.5 4.90909L12.1438 3V4.43182C10.6096 4.43182 9.07534 5.1 8.11644 6.34091L4.85616 10.0636C3.99315 11.0182 2.74658 11.5909 1.5 11.5909V12.5455C3.03425 12.5455 4.56849 11.8773 5.5274 10.6364L8.78767 6.91364C9.65068 5.95909 10.8973 5.38636 12.1438 5.38636Z" fill="#1DB954"/>
</svg>
